<?xml version="1.0" encoding="UTF-8"?>
<svg width="18px" height="22px" viewBox="0 0 18 22" version="1.1" xmlns="http://www.w3.org/2000/svg" xmlns:xlink="http://www.w3.org/1999/xlink">
    <title>Group</title>
    <g id="Page-1" stroke="none" stroke-width="1" fill="none" fill-rule="evenodd" stroke-linecap="round" stroke-linejoin="round">
        <g id="Group" transform="translate(1, 1)" stroke="#000000">
            <path d="M10.5,0 L2,0 C0.8954305,0 0,0.8954305 0,2 L0,18 C0,19.1045695 0.8954305,20 2,20 L14,20 C15.1045695,20 16,19.1045695 16,18 L16,5.5 L10.5,0 Z" id="Path"></path>
            <polyline id="Path" points="10 0 10 6 16 6"></polyline>
            <path d="M6,10 C5.44771525,10 5,10.4477153 5,11 L5,12 C5,12.5522847 4.55228475,13 4,13 C4.55228475,13 5,13.4477153 5,14 L5,15 C5,15.5522847 5.44771525,16 6,16" id="Path"></path>
            <path d="M10,16 C10.5522847,16 11,15.5522847 11,15 L11,14 C11,13.4477153 11.4477153,13 12,13 C11.4477153,13 11,12.5522847 11,12 L11,11 C11,10.4477153 10.5522847,10 10,10" id="Path"></path>
        </g>
    </g>
</svg>