<?xml version="1.0" encoding="UTF-8"?>
<svg width="18px" height="22px" viewBox="0 0 18 22" version="1.1" xmlns="http://www.w3.org/2000/svg" xmlns:xlink="http://www.w3.org/1999/xlink">
    <title>Group</title>
    <g id="Page-1" stroke="none" stroke-width="1" fill="none" fill-rule="evenodd">
        <g id="Group" transform="translate(1, 1)">
            <path d="M10.5,0 L2,0 C0.8954305,0 0,0.8954305 0,2 L0,18 C0,19.1045695 0.8954305,20 2,20 L14,20 C15.1045695,20 16,19.1045695 16,18 L16,5.5 L10.5,0 Z" id="Path" stroke="#000000" stroke-linecap="round" stroke-linejoin="round"></path>
            <polyline id="Path" stroke="#000000" stroke-linecap="round" stroke-linejoin="round" points="10 -4.4408921e-16 10 6 16 6"></polyline>
            <g id="js" transform="translate(1.6289, 8.8418)" fill="#3F3A3A" fill-rule="nonzero">
                <path d="M0.9375,1.26953125 L0.9375,0 L2.06542969,0 L2.06542969,1.26953125 L0.9375,1.26953125 Z M2.06542969,1.97265625 L2.06542969,6.99707031 C2.06542969,7.70345052 2.02636719,8.18684896 1.94824219,8.44726562 C1.87011719,8.70768229 1.73014323,8.90869141 1.52832031,9.05029297 C1.3264974,9.19189453 1.07747396,9.26269531 0.78125,9.26269531 C0.556640625,9.26269531 0.296223958,9.21386719 0,9.11621094 L0.1953125,7.94433594 C0.302734375,7.97363281 0.395507812,7.98828125 0.473632812,7.98828125 C0.668945312,7.98828125 0.804036458,7.91015625 0.87890625,7.75390625 C0.91796875,7.66927083 0.9375,7.39095052 0.9375,6.91894531 L0.9375,1.97265625 L2.06542969,1.97265625 Z" id="Shape"></path>
                <path d="M2.70246859,5.67871094 L3.83039828,5.46875 C3.92805453,6.01236979 4.23078891,6.28417969 4.73860141,6.28417969 C5.0087837,6.28417969 5.21060661,6.23209635 5.34407016,6.12792969 C5.4775337,6.02376302 5.54426547,5.88867188 5.54426547,5.72265625 C5.54426547,5.60872396 5.51496859,5.51920573 5.45637484,5.45410156 C5.39452589,5.3889974 5.27245557,5.33203125 5.09016391,5.28320312 C4.16568474,5.0390625 3.57811964,4.8063151 3.32746859,4.58496094 C3.01496859,4.30826823 2.85871859,3.92903646 2.85871859,3.44726562 C2.85871859,2.96549479 3.01171339,2.5797526 3.31770297,2.29003906 C3.62369255,2.00032552 4.06802849,1.85546875 4.65071078,1.85546875 C5.20735141,1.85546875 5.63052849,1.96370443 5.92024203,2.18017578 C6.20995557,2.39664714 6.41340609,2.74576823 6.53059359,3.22753906 L5.47102328,3.46679688 C5.37662224,3.05013021 5.10969516,2.84179688 4.67024203,2.84179688 C4.39354932,2.84179688 4.19660922,2.88167318 4.07942172,2.96142578 C3.96223422,3.04117839 3.90364047,3.14453125 3.90364047,3.27148438 C3.90364047,3.38541667 3.95735141,3.47981771 4.06477328,3.5546875 C4.17219516,3.6328125 4.50585401,3.75 5.06574984,3.90625 C5.69400505,4.08203125 6.12043734,4.2952474 6.34504672,4.54589844 C6.56640089,4.79654948 6.67707797,5.13020833 6.67707797,5.546875 C6.67707797,6.04817708 6.50536573,6.46158854 6.16194125,6.78710938 C5.81851677,7.11263021 5.34407016,7.27539062 4.73860141,7.27539062 C4.1884712,7.27539062 3.73925245,7.13948568 3.39094516,6.86767578 C3.04263786,6.59586589 2.81314568,6.19954427 2.70246859,5.67871094 Z" id="Path"></path>
            </g>
        </g>
    </g>
</svg>