<?xml version="1.0" encoding="UTF-8"?>
<svg width="20px" height="22px" viewBox="0 0 20 22" version="1.1" xmlns="http://www.w3.org/2000/svg" xmlns:xlink="http://www.w3.org/1999/xlink">
    <title>Group</title>
    <g id="Page-1" stroke="none" stroke-width="1" fill="none" fill-rule="evenodd">
        <g id="Group" transform="translate(0, 1)">
            <path d="M13.5,0 L5,0 C3.8954305,0 3,0.8954305 3,2 L3,18 C3,19.1045695 3.8954305,20 5,20 L17,20 C18.1045695,20 19,19.1045695 19,18 L19,5.5 L13.5,0 Z" id="Path" stroke="#000000" stroke-linecap="round" stroke-linejoin="round"></path>
            <polyline id="Path" stroke="#000000" stroke-linecap="round" stroke-linejoin="round" points="13 -4.4408921e-16 13 6 19 6"></polyline>
            <rect id="Rectangle" fill="#FFFFFF" x="0" y="9" width="5" height="9"></rect>
            <g id="md" transform="translate(2.5029, 8.8418)" fill="#3F3A3A" fill-rule="nonzero">
                <path d="M0,1.97265625 L1.03515625,1.97265625 L1.03515625,2.68066406 C1.22070312,2.40397135 1.42415365,2.19726562 1.64550781,2.06054688 C1.86686198,1.92382812 2.10611979,1.85546875 2.36328125,1.85546875 C2.63671875,1.85546875 2.87353516,1.92382812 3.07373047,2.06054688 C3.27392578,2.19726562 3.4375,2.40397135 3.56445312,2.68066406 C3.75325521,2.40397135 3.95589193,2.19726562 4.17236328,2.06054688 C4.38883464,1.92382812 4.61914062,1.85546875 4.86328125,1.85546875 C5.15299479,1.85546875 5.40283203,1.92464193 5.61279297,2.06298828 C5.82275391,2.20133464 5.98225911,2.39908854 6.09130859,2.65625 C6.20035807,2.91341146 6.25488281,3.30891927 6.25488281,3.84277344 L6.25488281,7.15820312 L5.12695312,7.15820312 L5.12695312,4.19433594 C5.12695312,3.67675781 5.08138021,3.33251953 4.99023438,3.16162109 C4.89908854,2.99072266 4.74609375,2.90527344 4.53125,2.90527344 C4.28059896,2.90527344 4.07877604,3.02490234 3.92578125,3.26416016 C3.77278646,3.50341797 3.69628906,3.97135417 3.69628906,4.66796875 L3.69628906,7.15820312 L2.56835938,7.15820312 L2.56835938,4.31640625 C2.56835938,3.75325521 2.5374349,3.39029948 2.47558594,3.22753906 C2.39420573,3.01269531 2.22981771,2.90527344 1.98242188,2.90527344 C1.81640625,2.90527344 1.66341146,2.96061198 1.5234375,3.07128906 C1.38346354,3.18196615 1.28255208,3.34391276 1.22070312,3.55712891 C1.15885417,3.77034505 1.12792969,4.13085938 1.12792969,4.63867188 L1.12792969,7.15820312 L0,7.15820312 L0,1.97265625 Z" id="Path"></path>
                <path d="M11.1350858,7.15820312 L10.0852811,7.15820312 L10.0852811,6.39648438 C9.91275505,6.68945312 9.70930453,6.90917969 9.47492953,7.05566406 C9.24055453,7.20214844 8.99966911,7.27539062 8.75227328,7.27539062 C8.27701286,7.27539062 7.8627876,7.03857422 7.5095975,6.56494141 C7.1564074,6.09130859 6.97981234,5.41503906 6.97981234,4.53613281 C6.97981234,3.65071615 7.15233839,2.98258464 7.49739047,2.53173828 C7.84244255,2.08089193 8.26724724,1.85546875 8.77180453,1.85546875 C9.00943474,1.85546875 9.23160271,1.9156901 9.43830844,2.03613281 C9.64501417,2.15657552 9.83463005,2.33723958 10.0071561,2.578125 L10.0071561,0 L11.1350858,0 L11.1350858,7.15820312 Z M8.13215609,4.453125 C8.13215609,4.921875 8.1720324,5.27099609 8.251785,5.50048828 C8.3315376,5.72998047 8.4454699,5.90250651 8.59358187,6.01806641 C8.74169385,6.1336263 8.90852328,6.19140625 9.09407016,6.19140625 C9.34146599,6.19140625 9.55630974,6.05794271 9.73860141,5.79101562 C9.92089307,5.52408854 10.0120389,5.12207031 10.0120389,4.58496094 C10.0120389,3.98925781 9.92333448,3.56038411 9.74592562,3.29833984 C9.56851677,3.03629557 9.34309359,2.90527344 9.06965609,2.90527344 C8.80923943,2.90527344 8.58788526,3.03385417 8.40559359,3.29101562 C8.22330193,3.54817708 8.13215609,3.93554688 8.13215609,4.453125 Z" id="Shape"></path>
            </g>
        </g>
    </g>
</svg>