<svg viewBox="0 0 491 558" version="1.1" xmlns="http://www.w3.org/2000/svg">
    <g id="Page-1" stroke="#000000" stroke-width="18" fill="none" fill-rule="evenodd">
        <g>
            <g id="Group" transform="translate(14.3483, 14.0809)" stroke="#000000" stroke-width="18">
                <path d="M234.6517,208.79678 C200.0517,203.59678 175.1517,193.19678 153.8517,175.29678 C139.6517,163.39678 138.5517,161.49678 121.0517,119.39678 C118.0517,112.39678 115.6517,105.59678 115.6517,104.29678 C115.6517,102.99678 116.7517,99.5967804 118.1517,96.5967804 C121.0517,90.3967804 121.1517,86.9967804 118.8517,80.8967804 C117.1517,76.4967804 117.1517,76.3967804 111.6517,75.9967804 C104.8517,75.4967804 101.1517,73.6967804 98.5516996,69.4967804 C96.3516996,65.9967804 89.6516996,45.5967804 89.6516996,42.4967804 C89.6516996,39.2967804 93.7516996,32.9967804 97.7516996,30.1967804 C99.8516996,28.7967804 105.7517,26.0967804 110.9517,24.2967804 C116.1517,22.4967804 125.2517,18.8967804 131.1517,16.2967804 C143.4517,10.8967804 147.4517,10.0967804 153.4517,11.6967804 C158.2517,12.9967804 159.5517,14.5967804 164.3517,25.5967804 C173.2517,45.4967804 173.6517,51.2967804 166.7517,57.6967804 L163.8517,60.3967804 L165.5517,64.3967804 C167.9517,69.5967804 172.0517,71.7967804 180.9517,72.4967804 C184.8517,72.7967804 188.8517,73.4967804 189.8517,73.8967804 C190.9517,74.4967804 193.8517,73.5967804 199.3517,70.8967804 C203.6517,68.6967804 215.0517,63.5967804 224.6517,59.4967804 C234.2517,55.3967804 252.2517,47.4967804 264.6517,41.9967804 C288.5517,31.3967804 363.7517,1.09678037 368.5517,0.196780373 C372.8517,-0.703219627 381.8517,1.59678037 386.9517,4.79678037 C397.9517,11.7967804 406.4517,28.9967804 405.4517,42.1967804 C404.8517,49.6967804 401.1517,57.1967804 395.6517,62.1967804 C391.7517,65.6967804 387.9517,67.2967804 360.6517,76.8967804 C351.0517,80.2967804 333.7517,86.6967804 322.1517,90.9967804 C289.4517,103.39678 267.7517,111.39678 248.1517,118.29678 C216.1517,129.49678 215.6517,129.69678 215.6517,132.39678 C215.6517,135.59678 212.9517,138.09678 205.7517,141.69678 C202.4517,143.39678 199.5517,145.19678 199.1517,145.79678 C198.8517,146.39678 199.4517,148.09678 200.6517,149.59678 C206.8517,157.49678 222.2517,166.29678 240.3517,172.39678 C258.9517,178.59678 262.9517,181.69678 264.2517,191.09678 C265.1517,197.79678 263.8517,204.39678 261.0517,207.79678 C258.6517,210.59678 257.9517,210.79678 252.3517,210.69678 C248.9517,210.59678 240.9517,209.79678 234.6517,208.79678 Z" id="Shape" fill-rule="nonzero" transform="translate(247.5917, 105.3579) scale(-1, 1) rotate(-180) translate(-247.5917, -105.3579)"></path>
                <path d="M60.4516996,524.7191 C58.9516996,523.5191 57.6516996,521.6191 57.4516996,520.3191 L57.1516996,518.1191 L29.3516996,517.6191 C6.45169965,517.2191 1.45169965,516.8191 0.651699649,515.6191 C-0.448300351,513.9191 -0.0483003507,441.6191 1.05169965,439.8191 C1.55169965,438.9191 8.55169965,438.6191 29.7516996,438.6191 L57.6516996,438.6191 L57.6516996,431.7191 C57.6516996,425.8191 58.0516996,424.3191 60.0516996,421.9191 L62.4516996,419.1191 L85.3516996,418.5191 C97.8516996,418.1191 110.1517,417.3191 112.6517,416.6191 C136.1517,410.2191 153.5517,386.8191 153.8517,361.1191 C154.0517,350.2191 152.5517,343.5191 147.7517,333.7191 C140.0517,317.8191 122.0517,303.4191 101.6517,296.7191 C94.5516996,294.4191 80.3516996,292.6191 68.9516996,292.6191 C62.8516996,292.6191 61.3516996,292.3191 59.4516996,290.4191 C57.3516996,288.3191 57.3516996,288.0191 58.0516996,262.9191 C58.4516996,247.4191 59.1516996,236.7191 59.8516996,235.7191 C62.3516996,231.6191 63.8516996,231.5191 100.5517,230.9191 L338.7517,230.8191 C374.6517,231.3191 374.7517,231.4191 377.1517,233.6191 L379.6517,235.9191 L379.6517,262.7191 C379.6517,285.8191 379.4517,289.5191 378.0517,290.7191 C377.0517,291.5191 371.9517,292.3191 364.3517,292.7191 C350.8517,293.5191 346.3517,294.4191 334.9517,298.2191 C308.3517,307.1191 291.8517,323.9191 285.5517,348.4191 C282.2517,361.4191 283.8517,379.3191 289.2517,389.8191 C293.7517,398.6191 308.1517,409.9191 320.1517,414.2191 C322.9517,415.1191 325.8517,416.6191 326.7517,417.3191 C327.6517,418.1191 335.5517,420.7191 344.2517,423.2191 C353.0517,425.6191 363.7517,428.8191 368.1517,430.3191 C399.6517,440.7191 423.7517,459.4191 453.5517,496.4191 C458.5517,502.6191 462.7517,508.5191 462.7517,509.4191 C463.0517,512.8191 462.4517,514.1191 460.0517,516.4191 L457.5517,518.6191 L393.5517,518.6191 C338.5517,518.6191 329.6517,518.8191 329.6517,520.0191 C329.6517,520.8191 328.6517,522.6191 327.4517,524.1191 L325.1517,526.7191 L290.1517,525.7191 C200.2517,523.2191 162.9517,523.2191 79.6516996,526.2191 C63.9516996,526.7191 62.9516996,526.6191 60.4516996,524.7191 Z" id="Path" fill-rule="nonzero" transform="translate(231.4115, 378.7691) scale(-1, 1) rotate(-180) translate(-231.4115, -378.7691)"></path>
                <line x1="57.1516996" y1="239.4191" x2="57.1516996" y2="317.763643" id="Path-2"></line>
                <line x1="330.6517" y1="239.4191" x2="330.6517" y2="335.9191" id="Path-2"></line>
                <line x1="215.6517" y1="78.3190999" x2="189.8517" y2="136.8191" id="Path-3"></line>
                <line x1="287.6517" y1="105.3191" x2="261.8517" y2="163.8191" id="Path-3"></line>
                <line x1="273.6517" y1="98.3190999" x2="247.8517" y2="156.8191" id="Path-3"></line>
                <line x1="330.6517" y1="122.3191" x2="304.8517" y2="180.8191" id="Path-3"></line>
                <line x1="56.6516996" y1="239.4191" x2="56.6516996" y2="317.763643" id="Path-2"></line>
            </g>
            <rect x="0" y="0" width="491" height="558" stroke="none" stroke-width="0"></rect>
        </g>
    </g>
</svg>